<?xml version="1.0" encoding="UTF-8"?>
<svg id="Layer_1" data-name="Layer 1" xmlns="http://www.w3.org/2000/svg" viewBox="0 0 1410.28 339.68">
  <defs>
    <style>
      .cls-1 {
        fill: none;
        stroke: #025697;
        stroke-miterlimit: 10;
        stroke-width: 5px;
      }

      .cls-2 {
        fill: #005597;
      }

      .cls-3 {
        fill: #0060a7;
      }

      .cls-4 {
        fill: #e2b424;
      }
    </style>
  </defs>
  <g>
    <polygon class="cls-2" points="102.4 118.7 140.98 118.7 140.98 78.6 167.7 78.6 167.7 182.51 140.98 182.51 140.98 139.65 102.4 139.65 102.4 182.51 75.68 182.51 75.68 78.6 102.4 78.6 102.4 118.7"/>
    <path class="cls-2" d="M206.14,146.95c0,2.3.41,4.43,1.23,6.41.82,1.98,1.93,3.7,3.34,5.17,1.41,1.47,3.09,2.62,5.04,3.44,1.95.83,4.07,1.24,6.34,1.24s4.25-.41,6.21-1.24c1.95-.83,3.63-1.97,5.04-3.44,1.41-1.47,2.54-3.17,3.41-5.1.86-1.93,1.29-4,1.29-6.2s-.43-4.29-1.29-6.27c-.86-1.98-2-3.7-3.41-5.17-1.41-1.47-3.09-2.62-5.04-3.45-1.96-.83-4.02-1.24-6.21-1.24s-4.38.41-6.34,1.24c-1.96.83-3.64,1.98-5.04,3.45-1.41,1.47-2.52,3.15-3.34,5.03-.82,1.88-1.23,3.93-1.23,6.13M237.22,111.81h24.81v70.69h-24.81v-7.85c-5.27,6.71-12.4,10.06-21.4,10.06-5.09,0-9.77-.94-14.04-2.83-4.27-1.88-8-4.52-11.18-7.92-3.18-3.4-5.66-7.39-7.43-11.99-1.77-4.59-2.66-9.6-2.66-15.02,0-5.05.86-9.85,2.59-14.4,1.73-4.55,4.13-8.52,7.22-11.92,3.09-3.4,6.77-6.09,11.04-8.06,4.27-1.97,9-2.96,14.18-2.96,8.72,0,15.95,3.08,21.67,9.23v-7.03Z"/>
    <polygon class="cls-2" points="381.16 111.81 357.15 182.51 336.89 182.51 325.18 140.18 314.07 182.51 293.81 182.51 269.05 111.81 294.56 111.81 305.07 150.8 315.73 111.81 334.49 111.81 345.14 150.8 355.65 111.81 381.16 111.81"/>
    <polygon class="cls-2" points="424.5 111.81 439.21 111.81 439.21 129.56 424.5 129.56 424.5 182.51 400.93 182.51 400.93 129.56 388.18 129.56 388.18 111.81 400.93 111.81 400.93 86.47 424.5 86.47 424.5 111.81"/>
    <polygon class="cls-2" points="137.66 201.37 113.39 252.53 89.03 201.37 80.91 201.37 72.59 270.35 81.4 270.35 87.64 217.79 109.53 262.84 117.35 262.84 139.04 217.79 145.38 270.35 154.2 270.35 145.78 201.37 137.66 201.37"/>
    <rect class="cls-2" x="223.73" y="198.17" width="8.62" height="72.19"/>
    <path class="cls-2" d="M449.16,68.13h24.68v52.64c3.36-4.13,6.77-6.91,10.22-8.34,3.45-1.42,7.5-2.14,12.13-2.14,8.81,0,15.47,2.46,19.97,7.37,4.5,4.92,6.75,11.55,6.75,19.91v44.92h-24.67v-35.69c0-3.58-.27-6.48-.82-8.68-.55-2.21-1.45-3.9-2.73-5.1-2.18-1.93-4.82-2.89-7.91-2.89-4.18,0-7.38,1.26-9.61,3.79-2.23,2.53-3.34,6.13-3.34,10.82v37.76h-24.68v-114.38Z"/>
    <path class="cls-2" d="M692.35,111.81h24.68v8.96c3.36-4.13,6.77-6.91,10.22-8.34,3.45-1.42,7.5-2.13,12.13-2.13,4.91,0,9.11.81,12.61,2.41,3.5,1.61,6.47,3.88,8.93,6.82,2,2.39,3.36,5.05,4.09,7.99.73,2.94,1.09,6.29,1.09,10.06v44.92h-24.67v-35.69c0-3.49-.25-6.32-.75-8.47s-1.39-3.88-2.66-5.17c-1.09-1.1-2.32-1.88-3.68-2.34-1.36-.46-2.82-.69-4.36-.69-4.18,0-7.39,1.26-9.61,3.79-2.23,2.53-3.34,6.13-3.34,10.82v37.76h-24.68v-70.69Z"/>
    <path class="cls-2" d="M631.01,111.81h24.68v11.57c2.63-4.23,5.86-7.46,9.68-9.72,3.82-2.25,8.27-3.38,13.36-3.38h2.11c.77,0,1.65.09,2.66.28v23.84c-3.27-1.65-6.82-2.48-10.64-2.48-5.72,0-10.02,1.72-12.88,5.17-2.86,3.44-4.29,8.47-4.29,15.09v30.32h-24.68v-70.69Z"/>
    <path class="cls-2" d="M560.94,146.82c0,2.39.43,4.57,1.3,6.55.86,1.98,2,3.7,3.41,5.17,1.41,1.47,3.09,2.62,5.04,3.44,1.95.83,4.02,1.24,6.2,1.24s4.25-.41,6.2-1.24c1.95-.83,3.63-1.97,5.04-3.44,1.41-1.47,2.54-3.19,3.41-5.17.86-1.98,1.29-4.11,1.29-6.41s-.43-4.29-1.29-6.27c-.87-1.97-2-3.7-3.41-5.17-1.41-1.47-3.09-2.62-5.04-3.45-1.95-.83-4.02-1.24-6.2-1.24s-4.25.41-6.2,1.24c-1.96.83-3.64,1.98-5.04,3.45-1.41,1.47-2.55,3.17-3.41,5.1-.86,1.93-1.3,4-1.3,6.2M534.91,146.54c0-5.24,1.04-10.13,3.14-14.68,2.09-4.55,5-8.5,8.72-11.85,3.73-3.35,8.16-6,13.29-7.93s10.75-2.89,16.84-2.89,11.56.94,16.7,2.83c5.13,1.88,9.58,4.5,13.36,7.85,3.77,3.35,6.7,7.35,8.79,11.99,2.09,4.64,3.14,9.76,3.14,15.36s-1.07,10.73-3.21,15.36c-2.14,4.64-5.07,8.64-8.79,11.99-3.73,3.36-8.2,5.95-13.43,7.79-5.23,1.84-10.88,2.75-16.97,2.75s-11.54-.92-16.63-2.75c-5.09-1.83-9.48-4.46-13.15-7.85-3.68-3.4-6.57-7.46-8.66-12.19-2.09-4.73-3.14-9.99-3.14-15.78"/>
    <path class="cls-2" d="M287.32,246.83c0-9.41-6.73-16.22-15.25-16.22-7.53,0-15.65,6.11-15.65,16.22s7.43,16.52,15.65,16.52,15.25-7.21,15.25-16.52M296.03,246.93c0,14.72-10.5,24.63-23.18,24.63-6.64,0-13.37-3.2-16.44-8.51v7.31h-8.62v-72.19h8.62v32.74c3.07-5.51,9.6-8.51,16.54-8.51,12.68,0,23.08,9.71,23.08,24.53"/>
    <path class="cls-2" d="M345.16,246.93c0-9.61-7.13-16.32-15.65-16.32s-15.45,6.71-15.45,16.32,7.03,16.42,15.45,16.42,15.65-6.71,15.65-16.42M305.35,246.93c0-14.82,10.99-24.53,24.16-24.53s24.27,9.71,24.27,24.53-11.09,24.63-24.27,24.63-24.16-9.81-24.16-24.63"/>
    <path class="cls-2" d="M399.63,223.6h8.62v46.76h-8.62v-7.31c-2.77,5.9-10.2,8.51-15.35,8.51-11.59,0-18.72-7.81-18.62-20.92v-27.03h8.62v26.83c0,7.91,4.66,12.92,11.1,12.92s14.16-3.91,14.26-14.02v-25.73Z"/>
    <path class="cls-2" d="M453.42,224.2l-1.39,8.21c-2.48-1.2-4.95-1.6-6.73-1.6-9.21,0-12.87,10.11-12.87,22.43v17.12h-8.72v-46.76h8.72v10.61c2.38-8.21,6.83-11.81,12.97-11.81,3.27,0,6.64.9,8.02,1.8"/>
    <path class="cls-2" d="M505.12,243.32v27.03h-8.62v-26.53c0-7.81-4.76-12.82-11.19-12.82s-14.16,3.9-14.16,14.02v25.33h-8.62v-46.76h8.62v7.11c2.77-5.71,10.3-8.31,15.35-8.31,11.49,0,18.72,7.81,18.62,20.92"/>
    <path class="cls-2" d="M555.04,243.22c-1.09-8.01-6.73-12.61-14.36-12.61s-13.37,4.21-14.76,12.61h29.12ZM563.46,250.73h-37.64c1.29,8.31,7.23,12.61,15.15,12.61,5.65,0,10.8-2.6,13.47-7.31l7.43,3.01c-3.96,8.11-12.28,12.52-21.19,12.52-13.17,0-23.77-9.91-23.77-24.73s10.6-24.43,23.77-24.43,22.98,9.61,22.98,24.43c0,1.3-.1,2.6-.2,3.9"/>
    <path class="cls-2" d="M202.83,243.22c-1.09-8.01-6.73-12.61-14.36-12.61s-13.37,4.21-14.76,12.61h29.12ZM211.25,250.73h-37.64c1.29,8.31,7.23,12.61,15.15,12.61,5.65,0,10.8-2.6,13.47-7.31l7.43,3.01c-3.96,8.11-12.28,12.52-21.19,12.52-13.17,0-23.77-9.91-23.77-24.73s10.6-24.43,23.77-24.43,22.98,9.61,22.98,24.43c0,1.3-.1,2.6-.2,3.9"/>
  </g>
  <line class="cls-1" x1="840.03" y1="78.6" x2="840.03" y2="270.23"/>
  <g>
    <g>
      <path class="cls-4" d="M980.64,240.1h-67.23v-22.01l52.16-119.64h38.76l-49.29,112.46h25.6v-38.28h32.78v38.28h14.84v29.19h-14.84v29.19h-32.78v-29.19Z"/>
      <path class="cls-4" d="M1119.89,218.24c-2.83.46-5.74.7-8.7.7-29.98,0-54.39-24.4-54.39-54.41s24.4-54.39,54.39-54.39c26.67,0,48.91,19.29,53.51,44.64l23.2-32.85c-15.01-26.92-43.76-45.19-76.71-45.19-48.39,0-87.78,39.39-87.78,87.78,0,43.47,31.76,79.62,73.27,86.56l23.21-32.85Z"/>
    </g>
    <g>
      <g>
        <path class="cls-3" d="M1134.46,230.3c3.28,0,5.85,2.66,5.85,5.92s-2.58,5.9-5.85,5.9-5.84-2.66-5.84-5.9,2.58-5.92,5.84-5.92ZM1134.46,239.7c1.91,0,3.41-1.55,3.41-3.48s-1.5-3.5-3.41-3.5-3.4,1.57-3.4,3.5,1.47,3.48,3.4,3.48Z"/>
        <path class="cls-3" d="M1142.35,230.43h7.21v2.16h-4.75v2.63h3.76v2.14h-3.76v4.6h-2.46v-11.52Z"/>
        <path class="cls-3" d="M1154.14,230.43h8.7v2.21h-3.11v9.32h-2.47v-9.32h-3.11v-2.21Z"/>
        <path class="cls-3" d="M1164.65,230.43h7.29v2.16h-4.85v2.63h4.25v2.12h-4.25v2.46h5v2.16h-7.44v-11.52Z"/>
        <path class="cls-3" d="M1176.46,239.23l-1.02,2.73h-2.61l4.28-11.52h2.66l4.26,11.52h-2.58l-1.02-2.73h-3.98ZM1179.65,237.11l-1.22-4.01-1.17,4.01h2.39Z"/>
        <path class="cls-3" d="M1195.07,239.6c-1,1.54-2.76,2.53-4.85,2.53-3.28,0-5.79-2.66-5.79-5.9s2.51-5.92,5.79-5.92c2.07,0,3.8.97,4.8,2.44l-1.99,1.37c-.62-.92-1.61-1.5-2.81-1.5-1.92,0-3.33,1.61-3.33,3.61s1.4,3.6,3.33,3.6c1.2,0,2.26-.65,2.88-1.59l1.97,1.37Z"/>
        <path class="cls-3" d="M1205.8,230.43v11.52h-2.48v-4.63h-4.1v4.63h-2.44v-11.52h2.44v4.7h4.1v-4.7h2.48Z"/>
        <path class="cls-3" d="M1210.95,230.43v11.52h-2.44v-11.52h2.44Z"/>
        <path class="cls-3" d="M1222.31,241.96h-2.19l-4.01-6.97v6.97h-2.44v-11.52h2.24l3.95,6.89v-6.89h2.46v11.52Z"/>
        <path class="cls-3" d="M1232.77,233.75c-.65-.72-1.52-1.17-2.53-1.17-1.94,0-3.44,1.64-3.44,3.65s1.51,3.66,3.44,3.66c1.24,0,2.79-.79,2.79-1.99h-3.09v-1.99h5.92c0,4.31-2.31,6.22-5.62,6.22s-5.9-2.66-5.9-5.9,2.61-5.92,5.9-5.92c1.79,0,3.33.74,4.33,1.89l-1.81,1.56Z"/>
        <path class="cls-3" d="M1241.73,230.43h7.29v2.16h-4.85v2.63h4.25v2.12h-4.25v2.46h5v2.16h-7.44v-11.52Z"/>
        <path class="cls-3" d="M1256.96,235.82l4,6.14h-2.89l-2.56-4.18-2.56,4.18h-2.88l3.98-6.14-3.63-5.38h2.94l2.14,3.45,2.16-3.45h2.93l-3.63,5.38Z"/>
        <path class="cls-3" d="M1271.91,239.6c-1,1.54-2.76,2.53-4.85,2.53-3.28,0-5.79-2.66-5.79-5.9s2.51-5.92,5.79-5.92c2.07,0,3.8.97,4.8,2.44l-1.99,1.37c-.62-.92-1.61-1.5-2.81-1.5-1.92,0-3.33,1.61-3.33,3.61s1.4,3.6,3.33,3.6c1.2,0,2.26-.65,2.88-1.59l1.97,1.37Z"/>
        <path class="cls-3" d="M1273.63,230.43h7.29v2.16h-4.85v2.63h4.25v2.12h-4.25v2.46h5v2.16h-7.44v-11.52Z"/>
        <path class="cls-3" d="M1283.26,230.43h2.46v9.37h4.31v2.16h-6.77v-11.52Z"/>
        <path class="cls-3" d="M1291.81,230.43h2.46v9.37h4.31v2.16h-6.77v-11.52Z"/>
        <path class="cls-3" d="M1300.35,230.43h7.29v2.16h-4.85v2.63h4.25v2.12h-4.25v2.46h5v2.16h-7.44v-11.52Z"/>
        <path class="cls-3" d="M1318.63,241.96h-2.19l-4.01-6.97v6.97h-2.44v-11.52h2.24l3.95,6.89v-6.89h2.46v11.52Z"/>
        <path class="cls-3" d="M1331.3,239.6c-1,1.54-2.76,2.53-4.85,2.53-3.28,0-5.79-2.66-5.79-5.9s2.51-5.92,5.79-5.92c2.07,0,3.8.97,4.8,2.44l-1.99,1.37c-.62-.92-1.61-1.5-2.81-1.5-1.92,0-3.33,1.61-3.33,3.61s1.4,3.6,3.33,3.6c1.2,0,2.26-.65,2.88-1.59l1.97,1.37Z"/>
        <path class="cls-3" d="M1333.02,230.43h7.29v2.16h-4.85v2.63h4.25v2.12h-4.25v2.46h5v2.16h-7.44v-11.52Z"/>
      </g>
      <g>
        <path class="cls-3" d="M1128.82,212.21v-21.9l-18.67-26.47h12.22l11.65,18.11,11.79-18.11h12.22l-18.75,26.61v21.76h-10.46Z"/>
        <path class="cls-3" d="M1166.09,163.84h30.61v9.06h-20.36v11.02h17.83v8.92h-17.83v10.32h20.99v9.06h-31.24v-48.37Z"/>
        <path class="cls-3" d="M1219.17,200.77l-4.28,11.44h-10.95l17.97-48.37h11.16l17.9,48.37h-10.81l-4.28-11.44h-16.71ZM1232.58,191.85l-5.12-16.85-4.91,16.85h10.04Z"/>
        <path class="cls-3" d="M1295.62,212.21h-12.36l-10.81-16.71h-2.32v16.71h-10.32v-48.37h19.8c10.95,0,16.08,7.93,16.08,15.87,0,6.81-3.79,13.69-12.08,15.38l12.01,17.13ZM1270.14,172.9v13.62h8.71c4,0,6.11-3.72,6.11-6.81s-1.9-6.81-5.83-6.81h-8.99Z"/>
        <path class="cls-3" d="M1315.77,198.03c.21,3.09,2.53,5.83,7.23,5.83,4.21,0,7.02-1.97,7.09-5.12.07-2.18-.98-4.07-5.83-5.48l-5.83-1.62c-10.67-3.37-12.5-9.48-12.5-13.9,0-8.64,7.37-14.46,16.64-14.46s16.36,5.55,16.36,14.81h-10.25c0-3.3-2.11-5.48-6.25-5.48-3.58,0-6.25,1.97-6.25,4.84,0,1.26.42,3.58,5.2,4.91l5.76,1.83c11.72,3.37,13.48,10.04,13.27,14.6-.21,9.55-8.78,14.18-17.41,14.18-10.46,0-17.55-6.25-17.55-14.95h10.32Z"/>
      </g>
    </g>
  </g>
</svg>