<?xml version="1.0" encoding="UTF-8"?> <svg xmlns="http://www.w3.org/2000/svg" width="220" height="47" viewBox="0 0 220 47" fill="none"><path d="M32.915 2.90954C32.1743 1.14042 30.4566 0 28.5391 0H20.2843C18.3668 0 16.6491 1.14286 15.9084 2.90954L0.371106 39.944C-0.24532 41.4134 -0.0869494 43.0826 0.795051 44.4083C1.67705 45.7339 3.15355 46.5258 4.747 46.5258H44.0764C45.6699 46.5258 47.1464 45.7339 48.0284 44.4083C48.9104 43.0826 49.0687 41.4134 48.4523 39.944L32.915 2.90954ZM35.4416 36.3132C35.1614 36.7372 34.6887 36.9882 34.1819 36.9882H14.6439C14.1347 36.9882 13.6645 36.7348 13.3843 36.3132C13.1041 35.8892 13.0529 35.358 13.2503 34.8877L23.0205 11.604C23.2593 11.0314 23.7953 10.6756 24.4166 10.6756C25.0379 10.6756 25.5715 11.0314 25.8127 11.604L29.9059 21.2708H24.726L21.4636 29.0442H33.1684L35.5829 34.8877C35.7803 35.3555 35.7291 35.8892 35.4489 36.3132" fill="#00549F"></path><path d="M65.8669 20.667L65.2619 18.7656H60.7677L60.1628 20.667H57.1378L61.2517 8.56719H64.778L68.8919 20.667H65.8669ZM61.5974 16.1728H64.4322L63.0148 11.7304L61.5974 16.1728Z" fill="black"></path><path d="M75.5561 20.9089C72.8941 20.9089 70.889 19.3533 70.889 16.7605V8.56719H73.6547V16.5185C73.6547 17.4346 74.0868 18.2124 75.5561 18.2124C77.0253 18.2124 77.4575 17.4346 77.4575 16.5185V8.56719H80.2231V16.7605C80.2231 19.3533 78.218 20.9089 75.5561 20.9089Z" fill="black"></path><path d="M87.8421 20.9089C85.3011 20.9089 83.6763 19.699 83.0022 17.9186L85.3875 16.5357C85.8197 17.5383 86.5629 18.2124 87.9285 18.2124C89.2422 18.2124 89.5706 17.6939 89.5706 17.2272C89.5706 16.4839 88.8792 16.19 87.0642 15.6888C85.2665 15.1875 83.5034 14.3232 83.5034 12.007C83.5034 9.67345 85.474 8.3252 87.5655 8.3252C89.5533 8.3252 91.109 9.27589 91.9905 11.0563L89.657 12.4218C89.2422 11.5576 88.6718 11.0217 87.5655 11.0217C86.7012 11.0217 86.2691 11.4538 86.2691 11.9378C86.2691 12.491 86.5629 12.8712 88.447 13.4417C90.2793 13.9948 92.3363 14.6344 92.3363 17.1926C92.3363 19.5261 90.4694 20.9089 87.8421 20.9089Z" fill="black"></path><path d="M102.793 8.56719V11.2291H99.6817V20.667H96.9161V11.2291H93.8047V8.56719H102.793Z" fill="black"></path><path d="M111.754 20.667L109.473 16.6913H108.159V20.667H105.393V8.56719H110.233C112.532 8.56719 114.382 10.4167 114.382 12.7157C114.382 14.2022 113.483 15.5505 112.152 16.2246L114.727 20.667H111.754ZM108.159 11.16V14.2714H110.233C110.994 14.2714 111.616 13.5972 111.616 12.7157C111.616 11.8341 110.994 11.16 110.233 11.16H108.159Z" fill="black"></path><path d="M125.109 20.667L124.504 18.7656H120.01L119.405 20.667H116.38L120.494 8.56719H124.02L128.134 20.667H125.109ZM120.84 16.1728H123.675L122.257 11.7304L120.84 16.1728Z" fill="black"></path><path d="M133.321 18.005H137.642V20.667H130.555V8.56719H133.321V18.005Z" fill="black"></path><path d="M140.25 8.56719H143.016V20.667H140.25V8.56719Z" fill="black"></path><path d="M154.176 20.667L153.571 18.7656H149.077L148.472 20.667H145.447L149.561 8.56719H153.087L157.201 20.667H154.176ZM149.906 16.1728H152.741L151.324 11.7304L149.906 16.1728Z" fill="black"></path><path d="M166.363 8.56719H169.129V20.667H167.055L162.388 14.0985V20.667H159.622V8.56719H161.696L166.363 15.1356V8.56719Z" fill="black"></path><path d="M59.5578 37.4533H65.2619V38.3176H58.6416V26.2178H59.5578V37.4533Z" fill="black"></path><path d="M69.4717 37.4533H75.5216V38.3176H68.5556V26.2178H75.4352V27.0821H69.4717V31.7837H75.0031V32.648H69.4717V37.4533Z" fill="black"></path><path d="M87.4719 38.3176L86.2965 35.2408H80.2293L79.0539 38.3176H78.0859L82.7876 26.2178H83.7556L88.4399 38.3176H87.4719ZM80.575 34.3765H85.9681L83.2716 27.3414L80.575 34.3765Z" fill="black"></path><path d="M99.231 38.3176L96.327 33.3567H92.507V38.3176H91.5908V26.2178H96.3616C97.3411 26.2178 98.1823 26.5693 98.8853 27.2722C99.5882 27.9752 99.9397 28.8164 99.9397 29.7959C99.9397 30.6141 99.6861 31.34 99.1791 31.9738C98.6836 32.6076 98.0498 33.0282 97.2777 33.2357L100.285 38.3176H99.231ZM92.507 27.0821V32.4924H96.3616C97.0991 32.4924 97.7271 32.2331 98.2457 31.7146C98.7643 31.1845 99.0235 30.5449 99.0235 29.7959C99.0235 29.0468 98.7643 28.4073 98.2457 27.8772C97.7271 27.3471 97.0991 27.0821 96.3616 27.0821H92.507Z" fill="black"></path><path d="M111.532 26.2178H112.448V38.3176H111.636L104.497 27.9118V38.3176H103.581V26.2178H104.376L111.532 36.6236V26.2178Z" fill="black"></path><path d="M116.837 26.2178H117.753V38.3176H116.837V26.2178Z" fill="black"></path><path d="M130.094 26.2178H131.01V38.3176H130.198L123.059 27.9118V38.3176H122.143V26.2178H122.938L130.094 36.6236V26.2178Z" fill="black"></path><path d="M146.911 32.6825V33.1492C146.911 34.6588 146.375 35.9322 145.304 36.9693C144.232 37.9949 142.82 38.5077 141.069 38.5077C139.225 38.5077 137.704 37.9085 136.506 36.71C135.307 35.5001 134.708 34.0193 134.708 32.2677C134.708 30.5161 135.301 29.0411 136.488 27.8426C137.675 26.6327 139.179 26.0277 141 26.0277C142.106 26.0277 143.12 26.2927 144.042 26.8228C144.975 27.3529 145.696 28.0616 146.203 28.9489L145.39 29.4329C144.987 28.6723 144.388 28.0616 143.593 27.6006C142.809 27.1397 141.945 26.9092 141 26.9092C139.433 26.9092 138.142 27.4278 137.128 28.4649C136.125 29.4905 135.624 30.7581 135.624 32.2677C135.624 33.7773 136.131 35.0506 137.145 36.0878C138.159 37.1134 139.467 37.6262 141.069 37.6262C142.486 37.6262 143.633 37.2401 144.509 36.468C145.384 35.696 145.874 34.7222 145.978 33.5468H140.844V32.6825H146.911Z" fill="black"></path><path d="M168.107 32.6825V33.1492C168.107 34.6588 167.571 35.9322 166.499 36.9693C165.427 37.9949 164.016 38.5077 162.264 38.5077C160.42 38.5077 158.899 37.9085 157.701 36.71C156.502 35.5001 155.903 34.0193 155.903 32.2677C155.903 30.5161 156.497 29.0411 157.684 27.8426C158.87 26.6327 160.374 26.0277 162.195 26.0277C163.301 26.0277 164.315 26.2927 165.237 26.8228C166.171 27.3529 166.891 28.0616 167.398 28.9489L166.585 29.4329C166.182 28.6723 165.583 28.0616 164.788 27.6006C164.004 27.1397 163.14 26.9092 162.195 26.9092C160.628 26.9092 159.337 27.4278 158.323 28.4649C157.321 29.4905 156.819 30.7581 156.819 32.2677C156.819 33.7773 157.326 35.0506 158.34 36.0878C159.354 37.1134 160.662 37.6262 162.264 37.6262C163.682 37.6262 164.828 37.2401 165.704 36.468C166.58 35.696 167.069 34.7222 167.173 33.5468H162.039V32.6825H168.107Z" fill="black"></path><path d="M179.432 38.3176L176.528 33.3567H172.708V38.3176H171.792V26.2178H176.563C177.542 26.2178 178.384 26.5693 179.086 27.2722C179.789 27.9752 180.141 28.8164 180.141 29.7959C180.141 30.6141 179.887 31.34 179.38 31.9738C178.885 32.6076 178.251 33.0282 177.479 33.2357L180.487 38.3176H179.432ZM172.708 27.0821V32.4924H176.563C177.3 32.4924 177.928 32.2331 178.447 31.7146C178.965 31.1845 179.225 30.5449 179.225 29.7959C179.225 29.0468 178.965 28.4073 178.447 27.8772C177.928 27.3471 177.3 27.0821 176.563 27.0821H172.708Z" fill="black"></path><path d="M193.756 36.6927C192.546 37.9027 191.071 38.5077 189.331 38.5077C187.591 38.5077 186.116 37.9027 184.906 36.6927C183.696 35.4712 183.091 33.9962 183.091 32.2677C183.091 30.5392 183.696 29.0699 184.906 27.8599C186.116 26.6384 187.591 26.0277 189.331 26.0277C191.071 26.0277 192.546 26.6384 193.756 27.8599C194.966 29.0699 195.571 30.5392 195.571 32.2677C195.571 33.9962 194.966 35.4712 193.756 36.6927ZM185.545 36.0705C186.583 37.1076 187.844 37.6262 189.331 37.6262C190.817 37.6262 192.074 37.1076 193.099 36.0705C194.136 35.0218 194.655 33.7542 194.655 32.2677C194.655 30.7811 194.136 29.5193 193.099 28.4822C192.074 27.4335 190.817 26.9092 189.331 26.9092C187.844 26.9092 186.583 27.4335 185.545 28.4822C184.52 29.5193 184.007 30.7811 184.007 32.2677C184.007 33.7542 184.52 35.0218 185.545 36.0705Z" fill="black"></path><path d="M206.667 37.3496C205.86 38.1217 204.788 38.5077 203.451 38.5077C202.115 38.5077 201.043 38.1217 200.236 37.3496C199.43 36.5775 199.026 35.5519 199.026 34.2728V26.2178H199.943V34.2728C199.943 35.2869 200.248 36.0993 200.859 36.71C201.469 37.3208 202.334 37.6262 203.451 37.6262C204.569 37.6262 205.433 37.3208 206.044 36.71C206.667 36.0993 206.978 35.2869 206.978 34.2728V26.2178H207.894V34.2728C207.894 35.5519 207.485 36.5775 206.667 37.3496Z" fill="black"></path><path d="M216.232 26.2178C217.315 26.2178 218.214 26.575 218.928 27.2895C219.643 28.004 220 28.897 220 29.9687C220 31.0404 219.643 31.9335 218.928 32.648C218.214 33.3509 217.315 33.7024 216.232 33.7024H213.034V38.3176H212.118V26.2178H216.232ZM216.232 32.8381C217.061 32.8381 217.741 32.5673 218.271 32.0257C218.813 31.4841 219.084 30.7984 219.084 29.9687C219.084 29.1275 218.813 28.4361 218.271 27.8945C217.741 27.3529 217.061 27.0821 216.232 27.0821H213.034V32.8381H216.232Z" fill="black"></path></svg> 